<svg xmlns="http://www.w3.org/2000/svg" xmlns:xlink="http://www.w3.org/1999/xlink" width="1920" zoomAndPan="magnify" viewBox="0 0 1440 374.999991" height="500" preserveAspectRatio="xMidYMid meet" version="1.0"><defs><clipPath id="a2a32742ff"><path d="M 9.132812 288.402344 L 192.285156 288.402344 L 192.285156 342.710938 L 9.132812 342.710938 Z M 9.132812 288.402344 " clip-rule="nonzero"/></clipPath></defs><path fill="#6f70db" d="M 231.261719 258.90625 L 231.261719 14.828125 L 285.890625 14.828125 L 285.890625 109.402344 L 286.613281 109.402344 C 291.160156 101.429688 297.820312 94.304688 306.648438 88.03125 C 315.53125 81.785156 326.917969 78.636719 340.832031 78.636719 C 359.265625 78.636719 373.828125 84.003906 384.515625 94.742188 C 395.253906 105.429688 400.625 120.761719 400.625 140.792969 L 400.625 258.90625 L 345.996094 258.90625 L 345.996094 158.242188 C 345.996094 145.023438 343.75 135.886719 339.28125 130.777344 C 334.867188 125.613281 327.640625 123.03125 317.597656 123.03125 C 308.972656 123.03125 301.539062 125.820312 295.289062 131.394531 C 289.015625 136.972656 285.890625 145.800781 285.890625 157.828125 L 285.890625 258.90625 Z M 231.261719 258.90625 " fill-opacity="1" fill-rule="nonzero"/><path fill="#6f70db" d="M 430.957031 258.90625 L 430.957031 84.109375 L 485.585938 84.109375 L 485.585938 112.8125 L 486.308594 112.8125 C 490.570312 103.054688 496.351562 95.335938 503.660156 89.683594 C 510.9375 83.980469 519.382812 81.113281 528.960938 81.113281 C 531.4375 81.113281 533.8125 81.191406 536.085938 81.320312 C 538.355469 81.398438 540.964844 81.785156 543.933594 82.457031 L 543.933594 130.261719 L 543.3125 130.261719 C 533.941406 128.402344 524.828125 128.96875 515.949219 131.914062 C 507.066406 134.878906 499.761719 140.121094 494.054688 147.605469 C 488.398438 155.117188 485.585938 165.132812 485.585938 177.652344 L 485.585938 258.90625 Z M 430.957031 258.90625 " fill-opacity="1" fill-rule="nonzero"/><path fill="#6f70db" d="M 652.117188 264.378906 C 632.753906 264.378906 616.128906 260.457031 602.238281 252.609375 C 588.398438 244.761719 577.710938 233.871094 570.226562 219.878906 C 562.710938 205.835938 558.96875 189.730469 558.96875 171.558594 C 558.96875 153.800781 562.582031 137.953125 569.8125 123.960938 C 577.09375 109.921875 587.523438 98.871094 601.101562 90.820312 C 614.65625 82.714844 630.664062 78.636719 649.121094 78.636719 C 669.15625 78.636719 685.808594 83.152344 699.105469 92.160156 C 712.375 101.195312 722.367188 113.792969 729.054688 129.949219 C 735.792969 146.058594 739.175781 164.71875 739.175781 185.910156 L 613.597656 185.910156 C 613.597656 198.171875 617.367188 207.488281 624.957031 213.890625 C 632.601562 220.242188 641.324219 223.390625 651.1875 223.390625 C 660.484375 223.390625 667.558594 221.582031 672.460938 217.917969 C 677.339844 214.277344 680.570312 210.328125 682.167969 206.042969 L 736.488281 206.042969 C 731.738281 223.542969 722.394531 237.636719 708.503906 248.375 C 694.585938 259.035156 675.792969 264.378906 652.117188 264.378906 Z M 613.597656 152.769531 L 684.648438 152.769531 C 684.648438 140.738281 681.34375 131.652344 674.734375 125.511719 C 668.125 119.316406 659.578125 116.21875 649.121094 116.21875 C 638.640625 116.21875 630.121094 119.316406 623.511719 125.511719 C 616.902344 131.652344 613.597656 140.738281 613.597656 152.769531 Z M 613.597656 152.769531 " fill-opacity="1" fill-rule="nonzero"/><path fill="#6f70db" d="M 831.359375 264.378906 C 815.867188 264.378906 802.441406 260.609375 791.082031 253.125 C 779.722656 245.640625 770.894531 234.929688 764.644531 221.015625 C 758.371094 207.128906 755.25 190.632812 755.25 171.558594 C 755.25 152.433594 758.371094 135.9375 764.644531 122.105469 C 770.894531 108.21875 779.722656 97.503906 791.082031 89.992188 C 802.441406 82.429688 815.867188 78.636719 831.359375 78.636719 C 839.75 78.636719 847.367188 79.925781 854.179688 82.457031 C 861.050781 84.933594 866.804688 87.980469 871.425781 91.542969 C 876.101562 95.054688 879.585938 98.410156 881.859375 101.558594 L 882.582031 101.558594 L 882.582031 14.828125 L 937.210938 14.828125 L 937.210938 258.90625 L 882.582031 258.90625 L 882.582031 241.457031 L 881.859375 241.457031 C 879.585938 244.425781 876.101562 247.730469 871.425781 251.371094 C 866.804688 255.035156 861.050781 258.082031 854.179688 260.558594 C 847.367188 263.089844 839.75 264.378906 831.359375 264.378906 Z M 845.714844 223.390625 C 856.867188 223.390625 865.59375 219.027344 871.945312 210.277344 C 878.347656 201.554688 881.546875 188.648438 881.546875 171.558594 C 881.546875 154.496094 878.347656 141.589844 871.945312 132.839844 C 865.59375 124.039062 856.867188 119.625 845.714844 119.625 C 834.558594 119.625 825.78125 124.039062 819.378906 132.839844 C 813.027344 141.589844 809.878906 154.496094 809.878906 171.558594 C 809.878906 188.648438 813.027344 201.554688 819.378906 210.277344 C 825.78125 219.027344 834.558594 223.390625 845.714844 223.390625 Z M 845.714844 223.390625 " fill-opacity="1" fill-rule="nonzero"/><path fill="#6f70db" d="M 1054.648438 264.378906 C 1035.285156 264.378906 1018.609375 260.378906 1004.5625 252.402344 C 990.570312 244.425781 979.832031 233.457031 972.34375 219.464844 C 964.832031 205.503906 961.085938 189.523438 961.085938 171.558594 C 961.085938 153.335938 964.832031 137.28125 972.34375 123.445312 C 979.832031 109.558594 990.570312 98.613281 1004.5625 90.613281 C 1018.609375 82.636719 1035.285156 78.636719 1054.648438 78.636719 C 1073.988281 78.636719 1090.589844 82.636719 1104.425781 90.613281 C 1118.316406 98.613281 1129.03125 109.558594 1136.542969 123.445312 C 1144.03125 137.28125 1147.800781 153.335938 1147.800781 171.558594 C 1147.800781 189.523438 1144.03125 205.503906 1136.542969 219.464844 C 1129.03125 233.457031 1118.316406 244.425781 1104.425781 252.402344 C 1090.589844 260.378906 1073.988281 264.378906 1054.648438 264.378906 Z M 1054.648438 223.390625 C 1066.679688 223.390625 1076.128906 218.949219 1082.945312 210.070312 C 1089.761719 201.191406 1093.167969 188.363281 1093.167969 171.558594 C 1093.167969 154.703125 1089.761719 141.824219 1082.945312 132.945312 C 1076.128906 124.066406 1066.679688 119.625 1054.648438 119.625 C 1042.59375 119.625 1033.09375 124.066406 1026.148438 132.945312 C 1019.175781 141.824219 1015.71875 154.703125 1015.71875 171.558594 C 1015.71875 188.363281 1019.175781 201.191406 1026.148438 210.070312 C 1033.09375 218.949219 1042.59375 223.390625 1054.648438 223.390625 Z M 1054.648438 223.390625 " fill-opacity="1" fill-rule="nonzero"/><path fill="#6f70db" d="M 1206.503906 258.90625 L 1157.65625 84.109375 L 1212.289062 84.109375 L 1238.621094 190.660156 L 1239.34375 190.660156 L 1267.949219 84.109375 L 1315.765625 84.109375 L 1344.472656 190.660156 L 1345.09375 190.660156 L 1371.425781 84.109375 L 1426.054688 84.109375 L 1377.210938 258.90625 L 1325.988281 258.90625 L 1292.21875 148.328125 L 1291.496094 148.328125 L 1257.726562 258.90625 Z M 1206.503906 258.90625 " fill-opacity="1" fill-rule="nonzero"/><path fill="#6f70db" d="M 231.949219 340.273438 L 231.949219 295.566406 L 236.285156 295.566406 L 236.285156 315.078125 L 261.484375 315.078125 L 261.484375 295.566406 L 265.820312 295.566406 L 265.820312 340.273438 L 261.484375 340.273438 L 261.484375 318.589844 L 236.285156 318.589844 L 236.285156 340.273438 Z M 231.949219 340.273438 " fill-opacity="1" fill-rule="nonzero"/><path fill="#6f70db" d="M 297.347656 340.273438 L 297.347656 295.566406 L 327.8125 295.566406 L 327.8125 299.28125 L 301.683594 299.28125 L 301.683594 314.875 L 325.4375 314.875 L 325.4375 318.488281 L 301.683594 318.488281 L 301.683594 336.660156 L 328.429688 336.660156 L 328.429688 340.273438 Z M 297.347656 340.273438 " fill-opacity="1" fill-rule="nonzero"/><path fill="#6f70db" d="M 354.964844 340.273438 L 371.796875 295.566406 L 376.445312 295.566406 L 393.382812 340.273438 L 389.042969 340.273438 L 383.882812 326.539062 L 364.363281 326.539062 L 359.199219 340.273438 Z M 365.5 323.132812 L 382.746094 323.132812 L 374.171875 299.902344 L 374.070312 299.902344 Z M 365.5 323.132812 " fill-opacity="1" fill-rule="nonzero"/><path fill="#6f70db" d="M 421.460938 340.273438 L 421.460938 295.566406 L 425.796875 295.566406 L 425.796875 336.660156 L 449.964844 336.660156 L 449.964844 340.273438 Z M 421.460938 340.273438 " fill-opacity="1" fill-rule="nonzero"/><path fill="#6f70db" d="M 491.652344 340.273438 L 491.652344 299.28125 L 476.367188 299.28125 L 476.367188 295.566406 L 511.171875 295.566406 L 511.171875 299.28125 L 495.988281 299.28125 L 495.988281 340.273438 Z M 491.652344 340.273438 " fill-opacity="1" fill-rule="nonzero"/><path fill="#6f70db" d="M 540.082031 340.273438 L 540.082031 295.566406 L 544.417969 295.566406 L 544.417969 315.078125 L 569.617188 315.078125 L 569.617188 295.566406 L 573.953125 295.566406 L 573.953125 340.273438 L 569.617188 340.273438 L 569.617188 318.589844 L 544.417969 318.589844 L 544.417969 340.273438 Z M 540.082031 340.273438 " fill-opacity="1" fill-rule="nonzero"/><path fill="#6f70db" d="M 655.4375 340.273438 L 655.4375 299.28125 L 640.152344 299.28125 L 640.152344 295.566406 L 674.957031 295.566406 L 674.957031 299.28125 L 659.773438 299.28125 L 659.773438 340.273438 Z M 655.4375 340.273438 " fill-opacity="1" fill-rule="nonzero"/><path fill="#6f70db" d="M 703.867188 340.273438 L 703.867188 295.566406 L 734.332031 295.566406 L 734.332031 299.28125 L 708.203125 299.28125 L 708.203125 314.875 L 731.957031 314.875 L 731.957031 318.488281 L 708.203125 318.488281 L 708.203125 336.660156 L 734.949219 336.660156 L 734.949219 340.273438 Z M 703.867188 340.273438 " fill-opacity="1" fill-rule="nonzero"/><path fill="#6f70db" d="M 783.792969 340.996094 C 779.503906 340.996094 775.839844 340.039062 772.742188 338.105469 C 769.644531 336.195312 767.269531 333.511719 765.617188 330.050781 C 763.964844 326.539062 763.136719 322.515625 763.136719 317.972656 C 763.136719 313.503906 763.964844 309.554688 765.617188 306.097656 C 767.269531 302.585938 769.644531 299.851562 772.742188 297.835938 C 775.890625 295.851562 779.609375 294.84375 783.894531 294.84375 C 787.199219 294.84375 790.039062 295.515625 792.464844 296.804688 C 794.945312 298.042969 796.933594 299.773438 798.457031 301.96875 C 800.03125 304.1875 801.039062 306.769531 801.449219 309.710938 L 797.113281 309.710938 C 796.75 307.59375 796.003906 305.660156 794.839844 303.929688 C 793.652344 302.226562 792.15625 300.882812 790.296875 299.902344 C 788.4375 298.949219 786.269531 298.457031 783.792969 298.457031 C 780.203125 298.457031 777.183594 299.335938 774.703125 301.039062 C 772.277344 302.691406 770.46875 305.011719 769.230469 307.957031 C 768.042969 310.925781 767.476562 314.253906 767.476562 317.972656 C 767.476562 321.765625 768.09375 325.148438 769.332031 328.089844 C 770.574219 330.980469 772.378906 333.25 774.808594 334.902344 C 777.207031 336.554688 780.125 337.382812 783.585938 337.382812 C 786.320312 337.382812 788.695312 336.8125 790.710938 335.625 C 792.699219 334.464844 794.273438 332.917969 795.460938 330.980469 C 796.621094 328.992188 797.34375 326.851562 797.628906 324.578125 L 801.96875 324.578125 C 801.554688 327.832031 800.546875 330.671875 798.972656 333.148438 C 797.371094 335.625 795.28125 337.5625 792.671875 338.929688 C 790.117188 340.296875 787.148438 340.996094 783.792969 340.996094 Z M 783.792969 340.996094 " fill-opacity="1" fill-rule="nonzero"/><path fill="#6f70db" d="M 831.351562 340.273438 L 831.351562 295.566406 L 835.691406 295.566406 L 835.691406 315.078125 L 860.886719 315.078125 L 860.886719 295.566406 L 865.226562 295.566406 L 865.226562 340.273438 L 860.886719 340.273438 L 860.886719 318.589844 L 835.691406 318.589844 L 835.691406 340.273438 Z M 831.351562 340.273438 " fill-opacity="1" fill-rule="nonzero"/><path fill="#6f70db" d="M 947.125 340.273438 L 930.703125 295.566406 L 935.246094 295.566406 L 949.1875 334.285156 L 949.292969 334.285156 L 963.234375 295.566406 L 967.777344 295.566406 L 951.253906 340.273438 Z M 947.125 340.273438 " fill-opacity="1" fill-rule="nonzero"/><path fill="#6f70db" d="M 995.886719 340.273438 L 995.886719 295.566406 L 1026.351562 295.566406 L 1026.351562 299.28125 L 1000.226562 299.28125 L 1000.226562 314.875 L 1023.976562 314.875 L 1023.976562 318.488281 L 1000.226562 318.488281 L 1000.226562 336.660156 L 1026.972656 336.660156 L 1026.972656 340.273438 Z M 995.886719 340.273438 " fill-opacity="1" fill-rule="nonzero"/><path fill="#6f70db" d="M 1056.914062 340.273438 L 1056.914062 295.566406 L 1061.5625 295.566406 L 1086.863281 333.664062 L 1087.070312 333.664062 L 1087.070312 295.566406 L 1091.304688 295.566406 L 1091.304688 340.273438 L 1086.65625 340.273438 L 1061.355469 302.378906 L 1061.25 302.378906 L 1061.25 340.273438 Z M 1056.914062 340.273438 " fill-opacity="1" fill-rule="nonzero"/><path fill="#6f70db" d="M 1135.472656 340.273438 L 1135.472656 299.28125 L 1120.1875 299.28125 L 1120.1875 295.566406 L 1154.992188 295.566406 L 1154.992188 299.28125 L 1139.808594 299.28125 L 1139.808594 340.273438 Z M 1135.472656 340.273438 " fill-opacity="1" fill-rule="nonzero"/><path fill="#6f70db" d="M 1200.113281 340.996094 C 1194.175781 340.996094 1189.890625 339.601562 1187.207031 336.761719 C 1184.570312 333.949219 1183.28125 329.894531 1183.28125 324.578125 L 1183.28125 295.566406 L 1187.617188 295.566406 L 1187.617188 324.578125 C 1187.617188 328.992188 1188.652344 332.21875 1190.714844 334.285156 C 1192.78125 336.347656 1195.90625 337.382812 1200.113281 337.382812 C 1204.246094 337.382812 1207.292969 336.347656 1209.304688 334.285156 C 1211.371094 332.21875 1212.402344 328.992188 1212.402344 324.578125 L 1212.402344 295.566406 L 1216.742188 295.566406 L 1216.742188 324.578125 C 1216.742188 329.894531 1215.425781 333.949219 1212.816406 336.761719 C 1210.183594 339.601562 1205.949219 340.996094 1200.113281 340.996094 Z M 1200.113281 340.996094 " fill-opacity="1" fill-rule="nonzero"/><path fill="#6f70db" d="M 1247.800781 340.273438 L 1247.800781 295.566406 L 1266.183594 295.566406 C 1270.441406 295.566406 1273.851562 296.597656 1276.40625 298.664062 C 1279.011719 300.730469 1280.332031 303.929688 1280.332031 308.265625 C 1280.332031 311.441406 1279.425781 313.996094 1277.644531 315.90625 C 1275.914062 317.765625 1273.566406 319.003906 1270.621094 319.621094 L 1270.621094 319.726562 C 1272.480469 320.011719 1273.953125 320.65625 1275.0625 321.6875 C 1276.226562 322.71875 1277.128906 324.011719 1277.75 325.507812 C 1278.367188 326.953125 1278.808594 328.476562 1279.089844 330.050781 C 1279.347656 331.652344 1279.53125 333.148438 1279.609375 334.59375 C 1279.738281 336.039062 1279.917969 337.253906 1280.125 338.207031 C 1280.332031 339.1875 1280.640625 339.730469 1281.054688 339.859375 L 1281.054688 340.273438 L 1276.507812 340.273438 C 1276.097656 339.9375 1275.8125 339.292969 1275.683594 338.3125 C 1275.527344 337.277344 1275.398438 336.039062 1275.269531 334.59375 C 1275.191406 333.148438 1274.984375 331.703125 1274.652344 330.257812 C 1274.367188 328.761719 1273.925781 327.339844 1273.308594 326.023438 C 1272.6875 324.734375 1271.757812 323.648438 1270.519531 322.824219 C 1269.332031 321.996094 1267.757812 321.585938 1265.769531 321.585938 L 1252.136719 321.585938 L 1252.136719 340.273438 Z M 1252.136719 318.074219 L 1264.738281 318.074219 C 1268.042969 318.074219 1270.726562 317.300781 1272.792969 315.699219 C 1274.910156 314.125 1275.992188 311.75 1275.992188 308.574219 C 1275.992188 305.273438 1275.011719 302.898438 1273.101562 301.453125 C 1271.164062 300.007812 1268.375 299.28125 1264.738281 299.28125 L 1252.136719 299.28125 Z M 1252.136719 318.074219 " fill-opacity="1" fill-rule="nonzero"/><path fill="#6f70db" d="M 1310.574219 340.273438 L 1310.574219 295.566406 L 1341.039062 295.566406 L 1341.039062 299.28125 L 1314.914062 299.28125 L 1314.914062 314.875 L 1338.664062 314.875 L 1338.664062 318.488281 L 1314.914062 318.488281 L 1314.914062 336.660156 L 1341.660156 336.660156 L 1341.660156 340.273438 Z M 1310.574219 340.273438 " fill-opacity="1" fill-rule="nonzero"/><path fill="#6f70db" d="M 1387.609375 340.996094 C 1384.226562 340.996094 1381.15625 340.425781 1378.417969 339.34375 C 1375.65625 338.257812 1373.460938 336.554688 1371.808594 334.285156 C 1370.15625 332.011719 1369.226562 329.199219 1369.019531 325.816406 L 1373.359375 325.816406 C 1373.566406 329.613281 1374.933594 332.503906 1377.488281 334.492188 C 1380.097656 336.425781 1383.476562 337.382812 1387.609375 337.382812 C 1391.378906 337.382812 1394.21875 336.53125 1396.078125 334.800781 C 1397.988281 333.019531 1398.96875 330.929688 1398.96875 328.503906 C 1398.96875 326.308594 1398.402344 324.578125 1397.316406 323.339844 C 1396.207031 322.050781 1394.578125 321.042969 1392.464844 320.347656 C 1390.320312 319.675781 1387.660156 319.003906 1384.511719 318.382812 C 1381.75 317.84375 1379.296875 317.121094 1377.179688 316.214844 C 1375.113281 315.339844 1373.488281 314.097656 1372.324219 312.5 C 1371.214844 310.847656 1370.671875 308.78125 1370.671875 306.304688 C 1370.671875 303.695312 1371.320312 301.554688 1372.636719 299.902344 C 1373.925781 298.199219 1375.734375 296.910156 1378.003906 296.082031 C 1380.277344 295.257812 1382.808594 294.84375 1385.648438 294.84375 C 1388.746094 294.84375 1391.457031 295.359375 1393.804688 296.390625 C 1396.207031 297.425781 1398.089844 298.949219 1399.484375 300.933594 C 1400.929688 302.871094 1401.707031 305.21875 1401.859375 307.957031 L 1397.625 307.957031 C 1397.265625 305.066406 1396.101562 302.769531 1394.117188 301.039062 C 1392.179688 299.335938 1389.363281 298.457031 1385.648438 298.457031 C 1382.472656 298.457031 1379.890625 299.152344 1377.902344 300.523438 C 1375.964844 301.839844 1375.011719 303.695312 1375.011719 306.097656 C 1375.011719 308.109375 1375.476562 309.660156 1376.457031 310.742188 C 1377.488281 311.855469 1378.882812 312.707031 1380.691406 313.324219 C 1382.550781 313.945312 1384.820312 314.511719 1387.507812 314.976562 C 1390.734375 315.597656 1393.519531 316.421875 1395.871094 317.453125 C 1398.273438 318.4375 1400.105469 319.777344 1401.34375 321.480469 C 1402.636719 323.210938 1403.304688 325.457031 1403.304688 328.191406 C 1403.304688 330.617188 1402.6875 332.8125 1401.449219 334.800781 C 1400.261719 336.738281 1398.503906 338.257812 1396.179688 339.34375 C 1393.832031 340.425781 1390.964844 340.996094 1387.609375 340.996094 Z M 1387.609375 340.996094 " fill-opacity="1" fill-rule="nonzero"/><path fill="#6f70db" d="M 6.914062 181.5 C 6.914062 160.851562 9.753906 144.125 15.382812 131.320312 C 21.089844 118.570312 28.730469 109.253906 38.308594 103.339844 C 47.859375 97.40625 58.574219 94.101562 70.425781 93.429688 L 70.425781 144.640625 C 53.128906 146.214844 44.503906 157.855469 44.503906 179.539062 C 44.503906 195.4375 49.488281 203.390625 59.480469 203.390625 C 66.964844 203.390625 71.972656 199.492188 74.453125 191.722656 C 76.984375 184.003906 79.746094 173.242188 82.714844 159.40625 C 84.988281 149.542969 87.929688 139.789062 91.597656 130.082031 C 95.234375 120.429688 100.632812 112.480469 107.808594 106.230469 C 114.960938 100.039062 124.566406 96.941406 136.621094 96.941406 C 152.578125 96.941406 165.898438 103.496094 176.585938 116.660156 C 187.328125 129.875 192.695312 148.769531 192.695312 173.34375 C 192.695312 191.980469 189.910156 207.054688 184.332031 218.566406 C 178.753906 230.050781 171.449219 238.519531 162.4375 243.964844 C 153.402344 249.464844 143.796875 252.429688 133.625 252.84375 L 133.625 201.632812 C 140.648438 200.730469 145.96875 198.226562 149.632812 194.097656 C 153.273438 190.019531 155.105469 183.566406 155.105469 174.6875 C 155.105469 166.96875 153.816406 161.160156 151.285156 157.238281 C 148.808594 153.363281 145.398438 151.453125 141.0625 151.453125 C 134.917969 151.453125 131.070312 154.398438 129.496094 160.335938 C 127.894531 166.246094 125.625 175.925781 122.679688 189.347656 C 120.125 200.960938 116.792969 212.011719 112.664062 222.488281 C 108.582031 232.945312 102.75 241.488281 95.105469 248.09375 C 87.515625 254.703125 77.136719 258.007812 63.917969 258.007812 C 45.460938 258.007812 31.335938 251.320312 21.578125 237.976562 C 11.820312 224.683594 6.914062 205.867188 6.914062 181.5 Z M 6.914062 181.5 " fill-opacity="1" fill-rule="nonzero"/><g clip-path="url(#a2a32742ff)"><path fill="#6f70db" d="M 9.183594 288.402344 L 192.285156 288.402344 L 192.285156 342.710938 L 9.183594 342.710938 Z M 9.183594 288.402344 " fill-opacity="1" fill-rule="nonzero"/></g></svg>