<svg xmlns="http://www.w3.org/2000/svg" xmlns:xlink="http://www.w3.org/1999/xlink" width="366" zoomAndPan="magnify" viewBox="0 0 274.5 106.499997" height="142" preserveAspectRatio="xMidYMid meet" version="1.0"><defs><g/><clipPath id="e3fab7fe0a"><path d="M 33.609375 76.246094 L 61.320312 76.246094 L 61.320312 84.464844 L 33.609375 84.464844 Z M 33.609375 76.246094 " clip-rule="nonzero"/></clipPath></defs><g fill="#6f70db" fill-opacity="1"><g transform="translate(65.202263, 71.782448)"><g><path d="M 2.015625 0 L 2.015625 -36.9375 L 10.28125 -36.9375 L 10.28125 -22.625 L 10.390625 -22.625 C 11.078125 -23.832031 12.085938 -24.910156 13.421875 -25.859375 C 14.765625 -26.804688 16.488281 -27.28125 18.59375 -27.28125 C 21.382812 -27.28125 23.585938 -26.46875 25.203125 -24.84375 C 26.828125 -23.226562 27.640625 -20.90625 27.640625 -17.875 L 27.640625 0 L 19.375 0 L 19.375 -15.234375 C 19.375 -17.234375 19.035156 -18.617188 18.359375 -19.390625 C 17.691406 -20.171875 16.597656 -20.5625 15.078125 -20.5625 C 13.773438 -20.5625 12.648438 -20.140625 11.703125 -19.296875 C 10.753906 -18.453125 10.28125 -17.117188 10.28125 -15.296875 L 10.28125 0 Z M 2.015625 0 "/></g></g></g><g fill="#6f70db" fill-opacity="1"><g transform="translate(95.416427, 71.782448)"><g><path d="M 2.015625 0 L 2.015625 -26.453125 L 10.28125 -26.453125 L 10.28125 -22.109375 L 10.390625 -22.109375 C 11.035156 -23.585938 11.910156 -24.753906 13.015625 -25.609375 C 14.117188 -26.472656 15.394531 -26.90625 16.84375 -26.90625 C 17.21875 -26.90625 17.578125 -26.894531 17.921875 -26.875 C 18.265625 -26.863281 18.660156 -26.804688 19.109375 -26.703125 L 19.109375 -19.46875 L 19.015625 -19.46875 C 17.597656 -19.75 16.21875 -19.664062 14.875 -19.21875 C 13.53125 -18.769531 12.425781 -17.976562 11.5625 -16.84375 C 10.707031 -15.707031 10.28125 -14.191406 10.28125 -12.296875 L 10.28125 0 Z M 2.015625 0 "/></g></g></g><g fill="#6f70db" fill-opacity="1"><g transform="translate(115.97241, 71.782448)"><g><path d="M 14.921875 0.828125 C 11.992188 0.828125 9.476562 0.234375 7.375 -0.953125 C 5.28125 -2.140625 3.664062 -3.789062 2.53125 -5.90625 C 1.394531 -8.03125 0.828125 -10.46875 0.828125 -13.21875 C 0.828125 -15.90625 1.375 -18.304688 2.46875 -20.421875 C 3.570312 -22.546875 5.148438 -24.21875 7.203125 -25.4375 C 9.253906 -26.664062 11.675781 -27.28125 14.46875 -27.28125 C 17.5 -27.28125 20.019531 -26.597656 22.03125 -25.234375 C 24.039062 -23.867188 25.550781 -21.960938 26.5625 -19.515625 C 27.582031 -17.078125 28.09375 -14.253906 28.09375 -11.046875 L 9.09375 -11.046875 C 9.09375 -9.191406 9.664062 -7.78125 10.8125 -6.8125 C 11.96875 -5.851562 13.289062 -5.375 14.78125 -5.375 C 16.1875 -5.375 17.257812 -5.648438 18 -6.203125 C 18.738281 -6.753906 19.226562 -7.351562 19.46875 -8 L 27.6875 -8 C 26.96875 -5.351562 25.554688 -3.21875 23.453125 -1.59375 C 21.347656 0.0195312 18.503906 0.828125 14.921875 0.828125 Z M 9.09375 -16.0625 L 19.84375 -16.0625 C 19.84375 -17.882812 19.34375 -19.257812 18.34375 -20.1875 C 17.34375 -21.125 16.050781 -21.59375 14.46875 -21.59375 C 12.882812 -21.59375 11.59375 -21.125 10.59375 -20.1875 C 9.59375 -19.257812 9.09375 -17.882812 9.09375 -16.0625 Z M 9.09375 -16.0625 "/></g></g></g><g fill="#6f70db" fill-opacity="1"><g transform="translate(145.670103, 71.782448)"><g><path d="M 12.34375 0.828125 C 10 0.828125 7.96875 0.257812 6.25 -0.875 C 4.53125 -2.007812 3.195312 -3.628906 2.25 -5.734375 C 1.300781 -7.835938 0.828125 -10.332031 0.828125 -13.21875 C 0.828125 -16.113281 1.300781 -18.609375 2.25 -20.703125 C 3.195312 -22.804688 4.53125 -24.425781 6.25 -25.5625 C 7.96875 -26.707031 10 -27.28125 12.34375 -27.28125 C 13.613281 -27.28125 14.765625 -27.085938 15.796875 -26.703125 C 16.835938 -26.328125 17.707031 -25.867188 18.40625 -25.328125 C 19.113281 -24.796875 19.640625 -24.289062 19.984375 -23.8125 L 20.09375 -23.8125 L 20.09375 -36.9375 L 28.359375 -36.9375 L 28.359375 0 L 20.09375 0 L 20.09375 -2.640625 L 19.984375 -2.640625 C 19.640625 -2.191406 19.113281 -1.691406 18.40625 -1.140625 C 17.707031 -0.585938 16.835938 -0.125 15.796875 0.25 C 14.765625 0.632812 13.613281 0.828125 12.34375 0.828125 Z M 14.515625 -5.375 C 16.203125 -5.375 17.523438 -6.035156 18.484375 -7.359375 C 19.453125 -8.679688 19.9375 -10.632812 19.9375 -13.21875 C 19.9375 -15.800781 19.453125 -17.753906 18.484375 -19.078125 C 17.523438 -20.410156 16.203125 -21.078125 14.515625 -21.078125 C 12.828125 -21.078125 11.5 -20.410156 10.53125 -19.078125 C 9.570312 -17.753906 9.09375 -15.800781 9.09375 -13.21875 C 9.09375 -10.632812 9.570312 -8.679688 10.53125 -7.359375 C 11.5 -6.035156 12.828125 -5.375 14.515625 -5.375 Z M 14.515625 -5.375 "/></g></g></g><g fill="#6f70db" fill-opacity="1"><g transform="translate(176.813933, 71.782448)"><g><path d="M 14.984375 0.828125 C 12.054688 0.828125 9.53125 0.222656 7.40625 -0.984375 C 5.289062 -2.191406 3.664062 -3.851562 2.53125 -5.96875 C 1.394531 -8.082031 0.828125 -10.5 0.828125 -13.21875 C 0.828125 -15.976562 1.394531 -18.40625 2.53125 -20.5 C 3.664062 -22.601562 5.289062 -24.257812 7.40625 -25.46875 C 9.53125 -26.675781 12.054688 -27.28125 14.984375 -27.28125 C 17.910156 -27.28125 20.421875 -26.675781 22.515625 -25.46875 C 24.617188 -24.257812 26.238281 -22.601562 27.375 -20.5 C 28.507812 -18.40625 29.078125 -15.976562 29.078125 -13.21875 C 29.078125 -10.5 28.507812 -8.082031 27.375 -5.96875 C 26.238281 -3.851562 24.617188 -2.191406 22.515625 -0.984375 C 20.421875 0.222656 17.910156 0.828125 14.984375 0.828125 Z M 14.984375 -5.375 C 16.804688 -5.375 18.234375 -6.046875 19.265625 -7.390625 C 20.296875 -8.734375 20.8125 -10.675781 20.8125 -13.21875 C 20.8125 -15.769531 20.296875 -17.71875 19.265625 -19.0625 C 18.234375 -20.40625 16.804688 -21.078125 14.984375 -21.078125 C 13.160156 -21.078125 11.722656 -20.40625 10.671875 -19.0625 C 9.617188 -17.71875 9.09375 -15.769531 9.09375 -13.21875 C 9.09375 -10.675781 9.617188 -8.734375 10.671875 -7.390625 C 11.722656 -6.046875 13.160156 -5.375 14.984375 -5.375 Z M 14.984375 -5.375 "/></g></g></g><g fill="#6f70db" fill-opacity="1"><g transform="translate(207.492934, 71.782448)"><g><path d="M 7.28125 0 L -0.109375 -26.453125 L 8.15625 -26.453125 L 12.140625 -10.328125 L 12.25 -10.328125 L 16.578125 -26.453125 L 23.8125 -26.453125 L 28.15625 -10.328125 L 28.25 -10.328125 L 32.234375 -26.453125 L 40.5 -26.453125 L 33.109375 0 L 25.359375 0 L 20.25 -16.734375 L 20.140625 -16.734375 L 15.03125 0 Z M 7.28125 0 "/></g></g></g><g fill="#6f70db" fill-opacity="1"><g transform="translate(66.743607, 84.095834)"><g><path d="M 0.578125 0 L 0.578125 -6.765625 L 1.234375 -6.765625 L 1.234375 -3.8125 L 5.046875 -3.8125 L 5.046875 -6.765625 L 5.703125 -6.765625 L 5.703125 0 L 5.046875 0 L 5.046875 -3.28125 L 1.234375 -3.28125 L 1.234375 0 Z M 0.578125 0 "/></g></g></g><g fill="#6f70db" fill-opacity="1"><g transform="translate(76.638461, 84.095834)"><g><path d="M 0.578125 0 L 0.578125 -6.765625 L 5.1875 -6.765625 L 5.1875 -6.203125 L 1.234375 -6.203125 L 1.234375 -3.84375 L 4.828125 -3.84375 L 4.828125 -3.296875 L 1.234375 -3.296875 L 1.234375 -0.546875 L 5.28125 -0.546875 L 5.28125 0 Z M 0.578125 0 "/></g></g></g><g fill="#6f70db" fill-opacity="1"><g transform="translate(85.871964, 84.095834)"><g><path d="M 0.0625 0 L 2.609375 -6.765625 L 3.3125 -6.765625 L 5.875 0 L 5.21875 0 L 4.4375 -2.078125 L 1.484375 -2.078125 L 0.703125 0 Z M 1.65625 -2.59375 L 4.265625 -2.59375 L 2.96875 -6.109375 L 2.953125 -6.109375 Z M 1.65625 -2.59375 "/></g></g></g><g fill="#6f70db" fill-opacity="1"><g transform="translate(95.41724, 84.095834)"><g><path d="M 0.578125 0 L 0.578125 -6.765625 L 1.234375 -6.765625 L 1.234375 -0.546875 L 4.890625 -0.546875 L 4.890625 0 Z M 0.578125 0 "/></g></g></g><g fill="#6f70db" fill-opacity="1"><g transform="translate(104.131113, 84.095834)"><g><path d="M 2.484375 0 L 2.484375 -6.203125 L 0.171875 -6.203125 L 0.171875 -6.765625 L 5.4375 -6.765625 L 5.4375 -6.203125 L 3.140625 -6.203125 L 3.140625 0 Z M 2.484375 0 "/></g></g></g><g fill="#6f70db" fill-opacity="1"><g transform="translate(113.364615, 84.095834)"><g><path d="M 0.578125 0 L 0.578125 -6.765625 L 1.234375 -6.765625 L 1.234375 -3.8125 L 5.046875 -3.8125 L 5.046875 -6.765625 L 5.703125 -6.765625 L 5.703125 0 L 5.046875 0 L 5.046875 -3.28125 L 1.234375 -3.28125 L 1.234375 0 Z M 0.578125 0 "/></g></g></g><g fill="#6f70db" fill-opacity="1"><g transform="translate(123.259471, 84.095834)"><g/></g></g><g fill="#6f70db" fill-opacity="1"><g transform="translate(128.912257, 84.095834)"><g><path d="M 2.484375 0 L 2.484375 -6.203125 L 0.171875 -6.203125 L 0.171875 -6.765625 L 5.4375 -6.765625 L 5.4375 -6.203125 L 3.140625 -6.203125 L 3.140625 0 Z M 2.484375 0 "/></g></g></g><g fill="#6f70db" fill-opacity="1"><g transform="translate(138.145762, 84.095834)"><g><path d="M 0.578125 0 L 0.578125 -6.765625 L 5.1875 -6.765625 L 5.1875 -6.203125 L 1.234375 -6.203125 L 1.234375 -3.84375 L 4.828125 -3.84375 L 4.828125 -3.296875 L 1.234375 -3.296875 L 1.234375 -0.546875 L 5.28125 -0.546875 L 5.28125 0 Z M 0.578125 0 "/></g></g></g><g fill="#6f70db" fill-opacity="1"><g transform="translate(147.379267, 84.095834)"><g><path d="M 3.4375 0.109375 C 2.789062 0.109375 2.234375 -0.0351562 1.765625 -0.328125 C 1.296875 -0.617188 0.9375 -1.023438 0.6875 -1.546875 C 0.4375 -2.078125 0.3125 -2.6875 0.3125 -3.375 C 0.3125 -4.050781 0.4375 -4.648438 0.6875 -5.171875 C 0.9375 -5.703125 1.296875 -6.117188 1.765625 -6.421875 C 2.242188 -6.722656 2.804688 -6.875 3.453125 -6.875 C 3.953125 -6.875 4.382812 -6.773438 4.75 -6.578125 C 5.125 -6.390625 5.425781 -6.128906 5.65625 -5.796875 C 5.894531 -5.460938 6.046875 -5.070312 6.109375 -4.625 L 5.453125 -4.625 C 5.398438 -4.945312 5.285156 -5.238281 5.109375 -5.5 C 4.929688 -5.757812 4.703125 -5.960938 4.421875 -6.109375 C 4.140625 -6.253906 3.8125 -6.328125 3.4375 -6.328125 C 2.894531 -6.328125 2.4375 -6.195312 2.0625 -5.9375 C 1.695312 -5.6875 1.421875 -5.335938 1.234375 -4.890625 C 1.054688 -4.441406 0.96875 -3.9375 0.96875 -3.375 C 0.96875 -2.800781 1.0625 -2.289062 1.25 -1.84375 C 1.4375 -1.40625 1.710938 -1.0625 2.078125 -0.8125 C 2.441406 -0.5625 2.882812 -0.4375 3.40625 -0.4375 C 3.820312 -0.4375 4.179688 -0.523438 4.484375 -0.703125 C 4.785156 -0.878906 5.023438 -1.113281 5.203125 -1.40625 C 5.378906 -1.707031 5.488281 -2.03125 5.53125 -2.375 L 6.1875 -2.375 C 6.125 -1.882812 5.972656 -1.453125 5.734375 -1.078125 C 5.492188 -0.703125 5.175781 -0.410156 4.78125 -0.203125 C 4.394531 0.00390625 3.945312 0.109375 3.4375 0.109375 Z M 3.4375 0.109375 "/></g></g></g><g fill="#6f70db" fill-opacity="1"><g transform="translate(157.43473, 84.095834)"><g><path d="M 0.578125 0 L 0.578125 -6.765625 L 1.234375 -6.765625 L 1.234375 -3.8125 L 5.046875 -3.8125 L 5.046875 -6.765625 L 5.703125 -6.765625 L 5.703125 0 L 5.046875 0 L 5.046875 -3.28125 L 1.234375 -3.28125 L 1.234375 0 Z M 0.578125 0 "/></g></g></g><g fill="#6f70db" fill-opacity="1"><g transform="translate(167.329585, 84.095834)"><g/></g></g><g fill="#6f70db" fill-opacity="1"><g transform="translate(172.982371, 84.095834)"><g><path d="M 2.546875 0 L 0.0625 -6.765625 L 0.75 -6.765625 L 2.859375 -0.90625 L 2.875 -0.90625 L 4.984375 -6.765625 L 5.671875 -6.765625 L 3.171875 0 Z M 2.546875 0 "/></g></g></g><g fill="#6f70db" fill-opacity="1"><g transform="translate(182.329247, 84.095834)"><g><path d="M 0.578125 0 L 0.578125 -6.765625 L 5.1875 -6.765625 L 5.1875 -6.203125 L 1.234375 -6.203125 L 1.234375 -3.84375 L 4.828125 -3.84375 L 4.828125 -3.296875 L 1.234375 -3.296875 L 1.234375 -0.546875 L 5.28125 -0.546875 L 5.28125 0 Z M 0.578125 0 "/></g></g></g><g fill="#6f70db" fill-opacity="1"><g transform="translate(191.562752, 84.095834)"><g><path d="M 0.578125 0 L 0.578125 -6.765625 L 1.28125 -6.765625 L 5.109375 -1 L 5.140625 -1 L 5.140625 -6.765625 L 5.78125 -6.765625 L 5.78125 0 L 5.078125 0 L 1.25 -5.734375 L 1.234375 -5.734375 L 1.234375 0 Z M 0.578125 0 "/></g></g></g><g fill="#6f70db" fill-opacity="1"><g transform="translate(201.542627, 84.095834)"><g><path d="M 2.484375 0 L 2.484375 -6.203125 L 0.171875 -6.203125 L 0.171875 -6.765625 L 5.4375 -6.765625 L 5.4375 -6.203125 L 3.140625 -6.203125 L 3.140625 0 Z M 2.484375 0 "/></g></g></g><g fill="#6f70db" fill-opacity="1"><g transform="translate(210.776132, 84.095834)"><g><path d="M 3.03125 0.109375 C 2.132812 0.109375 1.484375 -0.101562 1.078125 -0.53125 C 0.679688 -0.957031 0.484375 -1.570312 0.484375 -2.375 L 0.484375 -6.765625 L 1.140625 -6.765625 L 1.140625 -2.375 C 1.140625 -1.707031 1.296875 -1.21875 1.609375 -0.90625 C 1.921875 -0.59375 2.394531 -0.4375 3.03125 -0.4375 C 3.65625 -0.4375 4.117188 -0.59375 4.421875 -0.90625 C 4.734375 -1.21875 4.890625 -1.707031 4.890625 -2.375 L 4.890625 -6.765625 L 5.546875 -6.765625 L 5.546875 -2.375 C 5.546875 -1.570312 5.347656 -0.957031 4.953125 -0.53125 C 4.554688 -0.101562 3.914062 0.109375 3.03125 0.109375 Z M 3.03125 0.109375 "/></g></g></g><g fill="#6f70db" fill-opacity="1"><g transform="translate(220.444234, 84.095834)"><g><path d="M 0.578125 0 L 0.578125 -6.765625 L 3.359375 -6.765625 C 4.003906 -6.765625 4.519531 -6.609375 4.90625 -6.296875 C 5.300781 -5.984375 5.5 -5.5 5.5 -4.84375 C 5.5 -4.363281 5.363281 -3.976562 5.09375 -3.6875 C 4.832031 -3.40625 4.476562 -3.21875 4.03125 -3.125 L 4.03125 -3.109375 C 4.3125 -3.066406 4.535156 -2.96875 4.703125 -2.8125 C 4.878906 -2.65625 5.015625 -2.460938 5.109375 -2.234375 C 5.203125 -2.015625 5.269531 -1.785156 5.3125 -1.546875 C 5.351562 -1.304688 5.378906 -1.078125 5.390625 -0.859375 C 5.410156 -0.640625 5.4375 -0.457031 5.46875 -0.3125 C 5.5 -0.164062 5.546875 -0.0820312 5.609375 -0.0625 L 5.609375 0 L 4.921875 0 C 4.859375 -0.0507812 4.816406 -0.148438 4.796875 -0.296875 C 4.773438 -0.453125 4.753906 -0.640625 4.734375 -0.859375 C 4.722656 -1.078125 4.691406 -1.296875 4.640625 -1.515625 C 4.597656 -1.742188 4.53125 -1.957031 4.4375 -2.15625 C 4.34375 -2.351562 4.203125 -2.515625 4.015625 -2.640625 C 3.835938 -2.765625 3.597656 -2.828125 3.296875 -2.828125 L 1.234375 -2.828125 L 1.234375 0 Z M 1.234375 -3.359375 L 3.140625 -3.359375 C 3.640625 -3.359375 4.046875 -3.476562 4.359375 -3.71875 C 4.679688 -3.957031 4.84375 -4.316406 4.84375 -4.796875 C 4.84375 -5.296875 4.695312 -5.65625 4.40625 -5.875 C 4.113281 -6.09375 3.691406 -6.203125 3.140625 -6.203125 L 1.234375 -6.203125 Z M 1.234375 -3.359375 "/></g></g></g><g fill="#6f70db" fill-opacity="1"><g transform="translate(229.942275, 84.095834)"><g><path d="M 0.578125 0 L 0.578125 -6.765625 L 5.1875 -6.765625 L 5.1875 -6.203125 L 1.234375 -6.203125 L 1.234375 -3.84375 L 4.828125 -3.84375 L 4.828125 -3.296875 L 1.234375 -3.296875 L 1.234375 -0.546875 L 5.28125 -0.546875 L 5.28125 0 Z M 0.578125 0 "/></g></g></g><g fill="#6f70db" fill-opacity="1"><g transform="translate(239.17578, 84.095834)"><g><path d="M 3 0.109375 C 2.488281 0.109375 2.023438 0.0234375 1.609375 -0.140625 C 1.191406 -0.304688 0.859375 -0.5625 0.609375 -0.90625 C 0.359375 -1.25 0.21875 -1.675781 0.1875 -2.1875 L 0.84375 -2.1875 C 0.875 -1.613281 1.082031 -1.175781 1.46875 -0.875 C 1.863281 -0.582031 2.375 -0.4375 3 -0.4375 C 3.570312 -0.4375 4 -0.566406 4.28125 -0.828125 C 4.570312 -1.097656 4.71875 -1.414062 4.71875 -1.78125 C 4.71875 -2.113281 4.632812 -2.375 4.46875 -2.5625 C 4.300781 -2.757812 4.054688 -2.910156 3.734375 -3.015625 C 3.410156 -3.117188 3.007812 -3.21875 2.53125 -3.3125 C 2.113281 -3.394531 1.742188 -3.503906 1.421875 -3.640625 C 1.109375 -3.773438 0.863281 -3.960938 0.6875 -4.203125 C 0.519531 -4.453125 0.4375 -4.765625 0.4375 -5.140625 C 0.4375 -5.535156 0.535156 -5.859375 0.734375 -6.109375 C 0.929688 -6.367188 1.203125 -6.5625 1.546875 -6.6875 C 1.890625 -6.8125 2.273438 -6.875 2.703125 -6.875 C 3.171875 -6.875 3.582031 -6.796875 3.9375 -6.640625 C 4.300781 -6.484375 4.585938 -6.253906 4.796875 -5.953125 C 5.015625 -5.660156 5.132812 -5.304688 5.15625 -4.890625 L 4.515625 -4.890625 C 4.460938 -5.328125 4.285156 -5.675781 3.984375 -5.9375 C 3.691406 -6.195312 3.265625 -6.328125 2.703125 -6.328125 C 2.222656 -6.328125 1.832031 -6.222656 1.53125 -6.015625 C 1.238281 -5.816406 1.09375 -5.535156 1.09375 -5.171875 C 1.09375 -4.867188 1.164062 -4.632812 1.3125 -4.46875 C 1.46875 -4.300781 1.679688 -4.171875 1.953125 -4.078125 C 2.234375 -3.984375 2.578125 -3.898438 2.984375 -3.828125 C 3.472656 -3.734375 3.894531 -3.609375 4.25 -3.453125 C 4.613281 -3.304688 4.890625 -3.101562 5.078125 -2.84375 C 5.273438 -2.582031 5.375 -2.242188 5.375 -1.828125 C 5.375 -1.460938 5.28125 -1.128906 5.09375 -0.828125 C 4.914062 -0.535156 4.648438 -0.304688 4.296875 -0.140625 C 3.941406 0.0234375 3.507812 0.109375 3 0.109375 Z M 3 0.109375 "/></g></g></g><g fill="#6f70db" fill-opacity="1"><g transform="translate(34.101667, 46.333674)"><g><path d="M -0.828125 13.734375 C -0.828125 10.609375 -0.398438 8.078125 0.453125 6.140625 C 1.316406 4.210938 2.472656 2.800781 3.921875 1.90625 C 5.367188 1.007812 6.988281 0.507812 8.78125 0.40625 L 8.78125 8.15625 C 6.164062 8.394531 4.859375 10.15625 4.859375 13.4375 C 4.859375 15.84375 5.613281 17.046875 7.125 17.046875 C 8.257812 17.046875 9.015625 16.457031 9.390625 15.28125 C 9.773438 14.113281 10.191406 12.484375 10.640625 10.390625 C 10.984375 8.898438 11.429688 7.421875 11.984375 5.953125 C 12.535156 4.492188 13.351562 3.289062 14.4375 2.34375 C 15.519531 1.40625 16.972656 0.9375 18.796875 0.9375 C 21.210938 0.9375 23.226562 1.929688 24.84375 3.921875 C 26.46875 5.921875 27.28125 8.78125 27.28125 12.5 C 27.28125 15.320312 26.859375 17.601562 26.015625 19.34375 C 25.171875 21.082031 24.066406 22.363281 22.703125 23.1875 C 21.335938 24.019531 19.882812 24.46875 18.34375 24.53125 L 18.34375 16.78125 C 19.40625 16.644531 20.210938 16.265625 20.765625 15.640625 C 21.316406 15.023438 21.59375 14.046875 21.59375 12.703125 C 21.59375 11.535156 21.398438 10.65625 21.015625 10.0625 C 20.640625 9.476562 20.125 9.1875 19.46875 9.1875 C 18.539062 9.1875 17.957031 9.632812 17.71875 10.53125 C 17.476562 11.425781 17.132812 12.890625 16.6875 14.921875 C 16.300781 16.679688 15.796875 18.351562 15.171875 19.9375 C 14.554688 21.519531 13.671875 22.8125 12.515625 23.8125 C 11.367188 24.8125 9.796875 25.3125 7.796875 25.3125 C 5.003906 25.3125 2.867188 24.300781 1.390625 22.28125 C -0.0859375 20.269531 -0.828125 17.421875 -0.828125 13.734375 Z M -0.828125 13.734375 "/></g></g></g><g clip-path="url(#e3fab7fe0a)"><path fill="#6f70db" d="M 61.320312 84.464844 L 33.617188 84.464844 L 33.617188 76.246094 L 61.320312 76.246094 Z M 61.320312 84.464844 " fill-opacity="1" fill-rule="nonzero"/></g></svg>